<svg id="Layer_2" data-name="Layer 2" xmlns="http://www.w3.org/2000/svg" width="24.99" height="24.99" viewBox="0 0 24.99 24.99">
  <defs>
    <style>
      .cls-1 {
        fill: none;
        stroke: #fff;
        stroke-miterlimit: 10;
      }
    </style>
  </defs>
  <g id="bell">
    <g id="bell-2">
      <path id="Fill_1" data-name="Fill 1" class="cls-1" d="M10,21.24c0,.1,0,.2,0,.3A2.51,2.51,0,0,0,12.51,24h0a2.53,2.53,0,0,0,2.58-2.46h0c0-.1,0-.2,0-.3Z"/>
      <path id="Fill_4" data-name="Fill 4" class="cls-1" d="M20.79,17.08h0a1.61,1.61,0,0,1-1.17-1.55V11.4h0v-.23A7.11,7.11,0,1,0,5.38,11v4.54a1.62,1.62,0,0,1-1.16,1.55h0a2.06,2.06,0,0,0,0,4.12h16.6a2.06,2.06,0,1,0,0-4.12"/>
      <circle id="Oval" class="cls-1" cx="12.64" cy="2.48" r="1.5"/>
    </g>
  </g>
</svg>
